<svg width="25" height="30" viewBox="0 0 25 30" fill="none" xmlns="http://www.w3.org/2000/svg">
<path d="M5.61212 19.4662C6.5146 20.3332 7.04873 21.4235 7.14847 22.5696H6.86353C6.51841 22.5696 6.23842 22.8491 6.23842 23.1948V23.8373C6.23842 23.8667 6.24046 23.896 6.24453 23.924V25.0078C6.24453 26.065 7.10459 26.925 8.16145 26.925H8.7508C9.01567 28.6629 10.516 30 12.3267 30C14.1372 30 15.6375 28.6628 15.9024 26.925H16.4958C17.5526 26.925 18.4127 26.065 18.4127 25.0078V23.1944C18.4127 22.849 18.133 22.5693 17.7876 22.5693H17.6248C17.7222 21.4261 18.2467 20.3309 19.1041 19.5176C21.0405 17.6827 22.1514 15.0976 22.1514 12.4268C22.1514 9.73445 21.0806 7.22847 19.136 5.36998C17.1918 3.51209 14.6326 2.55757 11.9362 2.67763C7.00104 2.89249 2.91584 6.92926 2.63524 11.8685C2.47939 14.7245 3.56415 17.4936 5.61192 19.4665L5.61212 19.4662ZM12.3267 28.7501C11.196 28.7501 10.2478 27.9549 10.0094 26.9277H14.6341C14.3858 27.9712 13.4455 28.7501 12.3267 28.7501ZM17.1625 25.0079C17.1625 25.376 16.8633 25.6749 16.4958 25.6749L8.16163 25.6751C7.79384 25.6751 7.49495 25.376 7.49495 25.0082V23.8376C7.49495 23.8315 7.49495 23.826 7.49466 23.8198H7.7857C7.7889 23.8198 7.79151 23.8216 7.79471 23.8216H16.9796C16.9828 23.8216 16.9854 23.8198 16.9886 23.8198H17.1628L17.1625 25.0079ZM3.88381 11.9384C4.12803 7.63354 7.68914 4.1141 11.9917 3.92728C14.3494 3.82231 16.5774 4.65415 18.2725 6.27479C19.9678 7.89517 20.9014 10.0804 20.9014 12.4276C20.9014 14.7908 19.9576 16.9875 18.244 18.6116C17.138 19.6603 16.4663 21.0852 16.3675 22.5702H8.40621C8.30561 21.0815 7.63019 19.6722 6.4788 18.5662C4.69363 16.8459 3.74782 14.4301 3.88388 11.9386L3.88381 11.9384Z" fill="#10493F"/>
<path d="M12.3863 2.01865C12.7314 2.01865 13.0114 1.73924 13.0114 1.39354L13.0111 0.625109C13.0111 0.279701 12.7314 0 12.386 0C12.0409 0 11.7609 0.27941 11.7609 0.625109V1.39354C11.7612 1.73895 12.0411 2.01865 12.3863 2.01865Z" fill="#10493F"/>
<path d="M24.7716 12.3863C24.7716 12.0409 24.4919 11.7612 24.1465 11.7612H23.3778C23.0327 11.7612 22.7527 12.0406 22.7527 12.3863C22.7527 12.7317 23.0324 13.0114 23.3778 13.0114H24.1465C24.4916 13.0111 24.7716 12.7317 24.7716 12.3863Z" fill="#10493F"/>
<path d="M0 12.3863C0 12.7317 0.279701 13.0114 0.625109 13.0114H1.39384C1.73896 13.0114 2.01895 12.732 2.01895 12.3863C2.01895 12.0409 1.73925 11.7612 1.39384 11.7612H0.625109C0.279991 11.7612 0 12.0409 0 12.3863Z" fill="#10493F"/>
<path d="M20.6005 5.05548L21.1442 4.51236C21.3887 4.26872 21.3887 3.87271 21.1447 3.62848C20.9008 3.38426 20.5048 3.38426 20.2609 3.62848L19.7172 4.1716C19.4726 4.41525 19.4726 4.81126 19.7166 5.05548C19.8387 5.1776 19.9986 5.23865 20.1588 5.23865C20.3187 5.23865 20.4786 5.1776 20.6005 5.05548Z" fill="#10493F"/>
<path d="M4.61327 5.23855C4.77347 5.23855 4.93339 5.17749 5.0555 5.05538C5.29944 4.81115 5.29944 4.41514 5.05492 4.1715L4.51122 3.62837C4.26699 3.38356 3.87098 3.38356 3.62734 3.62837C3.3834 3.8726 3.3834 4.26861 3.62792 4.51225L4.17162 5.05538C4.29345 5.17749 4.45336 5.23855 4.61327 5.23855Z" fill="#10493F"/>
<path d="M8.18008 2.85597C8.25975 2.85597 8.34087 2.84085 8.41907 2.80829C8.73803 2.67571 8.88922 2.31023 8.75722 1.99154L8.46298 1.28182C8.33098 0.963164 7.96435 0.811388 7.64624 0.943676C7.32729 1.07596 7.1761 1.44173 7.3081 1.76042L7.60233 2.47014C7.70206 2.71059 7.93469 2.85597 8.18008 2.85597Z" fill="#10493F"/>
<path d="M23.0129 7.30781L22.3026 7.60205C21.9837 7.73376 21.8325 8.09952 21.9645 8.41879C22.0639 8.65924 22.2968 8.80462 22.5422 8.80462C22.6218 8.80462 22.7027 8.7895 22.7812 8.75693L23.4915 8.4627C23.8104 8.33099 23.9616 7.96522 23.8296 7.64596C23.6976 7.3273 23.3322 7.17552 23.0129 7.30781Z" fill="#10493F"/>
<path d="M1.9918 16.0156L1.2815 16.3098C0.96254 16.4415 0.811354 16.8073 0.943351 17.1266C1.04278 17.367 1.27567 17.5124 1.52107 17.5124C1.60073 17.5124 1.68156 17.4973 1.76006 17.4647L2.47037 17.1705C2.78932 17.0388 2.94051 16.673 2.80851 16.3537C2.67622 16.0351 2.31107 15.8836 1.9918 16.0156Z" fill="#10493F"/>
<path d="M16.5924 2.85603C16.8378 2.85603 17.0704 2.71065 17.1701 2.4702L17.4644 1.76048C17.5964 1.44182 17.4452 1.07635 17.1262 0.943738C16.8067 0.81116 16.4415 0.963218 16.3095 1.28188L16.0153 1.99161C15.8833 2.31026 16.0344 2.67574 16.3534 2.80835C16.4316 2.84062 16.5128 2.85603 16.5924 2.85603Z" fill="#10493F"/>
<path d="M22.7806 16.0156C22.4602 15.8839 22.0959 16.0351 21.9639 16.3537C21.8319 16.673 21.983 17.0384 22.302 17.1705L23.0123 17.4647C23.0908 17.497 23.1716 17.5124 23.2513 17.5124C23.4967 17.5124 23.7296 17.367 23.829 17.1266C23.961 16.8073 23.8098 16.4418 23.4909 16.3098L22.7806 16.0156Z" fill="#10493F"/>
<path d="M2.4704 7.6026L1.76009 7.30836C1.43939 7.17578 1.07509 7.32784 0.943351 7.64651C0.811354 7.96575 0.96254 8.33122 1.2815 8.46325L1.9918 8.75749C2.0703 8.78976 2.15113 8.80517 2.23079 8.80517C2.47619 8.80517 2.70908 8.65979 2.80851 8.41934C2.94051 8.1001 2.78935 7.73463 2.4704 7.6026Z" fill="#10493F"/>
<path d="M12.384 16.2627C13.2603 16.2627 13.9741 15.6042 14.0442 14.7325L14.5713 8.34702C14.5821 8.27259 14.5841 8.19874 14.5841 8.12547C14.5841 6.91565 13.5973 5.93121 12.384 5.93121C11.7693 5.93121 11.1789 6.19115 10.7639 6.6453C10.3507 7.09683 10.1446 7.70476 10.1987 8.30781L10.7296 14.7311C10.8002 15.6047 11.5111 16.2627 12.384 16.2627ZM11.6862 7.48867C11.8679 7.29038 12.1156 7.18106 12.384 7.18106C12.9079 7.18106 13.3339 7.60468 13.3339 8.12515L12.7983 14.6307C12.7806 14.8478 12.6027 15.0121 12.384 15.0121C12.1686 15.0121 11.993 14.8478 11.9755 14.6295L11.4443 8.20073C11.4208 7.9379 11.5068 7.68522 11.6862 7.48867Z" fill="#10493F"/>
<path d="M12.3839 17.1633C11.8646 17.1633 11.3814 17.3654 11.0351 17.7219C10.6729 18.0745 10.465 18.5702 10.465 19.0817C10.465 19.5937 10.6729 20.0901 11.0229 20.4299C11.3808 20.798 11.8641 21.0007 12.3839 21.0007C12.8982 21.0007 13.3814 20.7998 13.7438 20.4366C14.0991 20.0825 14.3026 19.5888 14.3026 19.0817C14.3026 18.024 13.442 17.1634 12.384 17.1634L12.3839 17.1633ZM12.8602 19.553C12.6066 19.808 12.1737 19.819 11.9068 19.5463C11.7832 19.4259 11.7152 19.2613 11.7152 19.082C11.7152 18.9031 11.7835 18.7377 11.919 18.606C12.0396 18.4821 12.2045 18.4138 12.3842 18.4138C12.7528 18.4138 13.0529 18.7136 13.0529 19.0822C13.0526 19.2593 12.9828 19.4303 12.8602 19.553Z" fill="#10493F"/>
</svg>
