<svg width="22" height="30" viewBox="0 0 22 30" fill="none" xmlns="http://www.w3.org/2000/svg">
<path d="M11.9821 3.21423C12.1966 3.21423 12.3763 3.03065 12.4177 2.7865L12.4265 2.67908C12.4265 2.42018 12.2742 2.20361 12.072 2.15369L11.9821 2.14294M11.9821 3.21423V2.14294M11.9821 3.21423L11.8932 3.20349C11.7198 3.16076 11.583 2.99586 11.5475 2.7865L11.5388 2.67908C11.5388 2.38336 11.7372 2.1432 11.9821 2.14294M11.9821 3.21423V2.14294" fill="#10493F" stroke="#10493F" stroke-width="6"/>
<mask id="path-2-inside-1_144_3" fill="white">
<path d="M20.6795 19.9667L19.4797 17.4827C19.3207 17.0944 18.8477 17.1007 18.6858 17.4827L17.4878 19.9667C17.1956 20.5494 16.8646 21.2107 16.8646 22.009C16.8646 23.4865 17.8597 24.6875 19.0835 24.6875C20.3075 24.6875 21.3024 23.4852 21.3024 22.008C21.3024 21.2107 20.9715 20.5493 20.6795 19.9667ZM19.0835 23.6162C18.3493 23.6162 17.752 22.8953 17.752 22.009C17.752 21.509 17.993 21.0297 18.2469 20.5212L19.0835 18.7917L19.9199 20.5223C20.1749 21.0298 20.415 21.5091 20.415 22.008C20.415 22.8943 19.8177 23.6163 19.0835 23.6163L19.0835 23.6162Z"/>
</mask>
<path d="M20.6795 19.9667L19.4797 17.4827C19.3207 17.0944 18.8477 17.1007 18.6858 17.4827L17.4878 19.9667C17.1956 20.5494 16.8646 21.2107 16.8646 22.009C16.8646 23.4865 17.8597 24.6875 19.0835 24.6875C20.3075 24.6875 21.3024 23.4852 21.3024 22.008C21.3024 21.2107 20.9715 20.5493 20.6795 19.9667ZM19.0835 23.6162C18.3493 23.6162 17.752 22.8953 17.752 22.009C17.752 21.509 17.993 21.0297 18.2469 20.5212L19.0835 18.7917L19.9199 20.5223C20.1749 21.0298 20.415 21.5091 20.415 22.008C20.415 22.8943 19.8177 23.6163 19.0835 23.6163L19.0835 23.6162Z" fill="#10493F"/>
<path d="M20.6795 19.9667L15.2767 22.5762L15.2958 22.6158L15.3154 22.655L20.6795 19.9667ZM19.4797 17.4827L13.927 19.756L13.9968 19.9265L14.0769 20.0923L19.4797 17.4827ZM18.6858 17.4827L24.0901 20.0892L24.1534 19.9579L24.2104 19.8236L18.6858 17.4827ZM17.4878 19.9667L22.8511 22.6564L22.8719 22.615L22.8921 22.5732L17.4878 19.9667ZM19.0835 23.6162L24.6268 21.3201L23.0926 17.6162H19.0835V23.6162ZM18.2469 20.5212L23.6148 23.2017L23.6317 23.168L23.6481 23.134L18.2469 20.5212ZM19.0835 18.7917L24.4856 16.1808L19.0859 5.00845L13.6823 16.1789L19.0835 18.7917ZM19.9199 20.5223L14.5178 23.1332L14.5379 23.175L14.5588 23.2164L19.9199 20.5223ZM19.0835 23.6163L13.5402 25.9124L15.0745 29.6163H19.0835V23.6163ZM20.6795 19.9667L26.0822 17.3571L24.8825 14.8732L19.4797 17.4827L14.0769 20.0923L15.2767 22.5762L20.6795 19.9667ZM19.4797 17.4827L25.0324 15.2095C24.0929 12.9147 21.831 11.18 19.0536 11.1939C16.3207 11.2077 14.107 12.9099 13.1613 15.1419L18.6858 17.4827L24.2104 19.8236C23.4265 21.6736 21.5302 23.1816 19.114 23.1938C16.6534 23.2062 14.7075 21.6624 13.927 19.756L19.4797 17.4827ZM18.6858 17.4827L13.2815 14.8762L12.0835 17.3601L17.4878 19.9667L22.8921 22.5732L24.0901 20.0892L18.6858 17.4827ZM17.4878 19.9667L12.1245 17.2769C11.8955 17.7335 10.8646 19.5981 10.8646 22.009H16.8646H22.8646C22.8646 22.4579 22.7681 22.7805 22.7245 22.9039C22.7048 22.9599 22.6954 22.976 22.7158 22.9318C22.7404 22.8785 22.7724 22.8134 22.8511 22.6564L17.4878 19.9667ZM16.8646 22.009H10.8646C10.8646 25.6942 13.5389 30.6875 19.0835 30.6875V24.6875V18.6875C20.5409 18.6875 21.5908 19.417 22.1354 20.0745C22.6707 20.7206 22.8646 21.4228 22.8646 22.009H16.8646ZM19.0835 24.6875V30.6875C24.6318 30.6875 27.3024 25.6886 27.3024 22.008H21.3024H15.3024C15.3024 21.422 15.496 20.7207 16.0303 20.0754C16.574 19.4187 17.624 18.6875 19.0835 18.6875V24.6875ZM21.3024 22.008H27.3024C27.3024 19.5981 26.2713 17.7329 26.0435 17.2783L20.6795 19.9667L15.3154 22.655C15.3942 22.8122 15.4263 22.8774 15.451 22.931C15.4715 22.9754 15.4622 22.9596 15.4425 22.9038C15.3992 22.7811 15.3024 22.4581 15.3024 22.008H21.3024ZM19.0835 23.6162V17.6162C20.7867 17.6162 22.0583 18.4667 22.7629 19.3173C23.4583 20.1567 23.752 21.1265 23.752 22.009H17.752H11.752C11.752 25.1025 14.0281 29.6162 19.0835 29.6162V23.6162ZM17.752 22.009H23.752C23.752 22.7228 23.5798 23.221 23.524 23.3702C23.4942 23.45 23.4765 23.4843 23.4944 23.4462C23.5156 23.401 23.5436 23.3445 23.6148 23.2017L18.2469 20.5212L12.8789 17.8407C12.7962 18.0064 11.752 19.8207 11.752 22.009H17.752ZM18.2469 20.5212L23.6481 23.134L24.4847 21.4045L19.0835 18.7917L13.6823 16.1789L12.8457 17.9084L18.2469 20.5212ZM19.0835 18.7917L13.6814 21.4026L14.5178 23.1332L19.9199 20.5223L25.3221 17.9114L24.4856 16.1808L19.0835 18.7917ZM19.9199 20.5223L14.5588 23.2164C14.6282 23.3545 14.6557 23.4102 14.6754 23.452C14.6921 23.4876 14.6738 23.4518 14.6434 23.3706C14.5866 23.2187 14.415 22.7207 14.415 22.008H20.415H26.415C26.415 19.8184 25.3736 18.0124 25.2811 17.8282L19.9199 20.5223ZM20.415 22.008H14.415C14.415 21.1259 14.7084 20.1574 15.4024 19.3189C16.1054 18.4695 17.377 17.6163 19.0835 17.6163V23.6163V29.6163C24.1436 29.6163 26.415 25.0959 26.415 22.008H20.415ZM19.0835 23.6163L24.6268 21.3202L24.6268 21.3201L19.0835 23.6162L13.5402 25.9123L13.5402 25.9124L19.0835 23.6163Z" fill="#10493F" mask="url(#path-2-inside-1_144_3)"/>
<mask id="path-4-inside-2_144_3" fill="white">
<path d="M15.0892 26.8842V26.2499C15.0892 25.5524 14.717 24.9633 14.2017 24.7413V17.5795C14.717 17.3575 15.0892 16.7684 15.0892 16.0709C15.0892 15.3734 14.717 14.7843 14.2017 14.5623V13.9283H16.8643C17.1088 13.9283 17.3081 14.1689 17.3081 14.464V15.5352C17.3081 15.8314 17.5065 16.0709 17.7518 16.0709H20.4145C20.6598 16.0709 20.8582 15.8314 20.8582 15.5352V13.3924C20.8582 11.3248 19.4645 9.64237 17.7516 9.64237H14.2012V9.0081C14.7169 8.7864 15.0891 8.19733 15.0891 7.49979C15.0891 6.61354 14.4919 5.89259 13.7577 5.89259L13.3139 5.89286V4.82158C13.3139 4.81759 13.3122 4.81414 13.3122 4.81015C13.8488 4.32076 14.2016 3.55145 14.2016 2.67847C14.2016 1.20126 13.2065 0 11.9825 0C11.2602 0 10.6237 0.424796 10.2183 1.07128H9.40808C6.90659 1.07128 4.87128 3.52811 4.87128 6.54766V9.72272C4.11352 9.96701 3.55037 10.7951 3.55037 11.7855C3.55037 12.7853 4.12339 13.6211 4.8922 13.8561V14.8806C4.8922 16.1279 4.05139 17.1428 3.01812 17.1428H1.33145C0.597254 17.1428 0 17.8638 0 18.7497C0 19.636 0.597254 20.3569 1.33145 20.3569H3.01835C5.51984 20.3569 7.55515 17.9001 7.55515 14.8805L7.55493 13.9284H9.76354V14.5626C9.24822 14.7846 8.87606 15.3737 8.87606 16.0712C8.87606 16.7687 9.24823 17.3578 9.76354 17.5798V24.7416C9.24822 24.9636 8.87606 25.5527 8.87606 26.2502V26.8845C8.36074 27.1065 7.98858 27.6955 7.98858 28.3931V29.4644C7.98858 29.7605 8.18699 30 8.43232 30H15.533C15.7783 30 15.9767 29.7605 15.9767 29.4644V28.3931C15.9765 27.6953 15.6043 27.1062 15.089 26.8842L15.0892 26.8842ZM13.314 17.6787V24.6432H10.6513V17.6787H13.314ZM10.653 4.81001C10.653 4.814 10.6513 4.81745 10.6513 4.82144V5.89272H10.2075C9.47335 5.89299 8.87609 6.61394 8.87609 7.49992C8.87609 8.19745 9.24827 8.78651 9.76357 9.0085V9.64277H7.53427V6.54775C7.53427 5.30075 8.37485 4.28582 9.40812 4.28582H10.2183C10.3427 4.48413 10.4885 4.66008 10.653 4.81001ZM10.6513 9.10718H13.314V14.4642H10.6513V9.10718ZM17.7519 10.7144C18.9759 10.7144 19.9708 11.9156 19.9708 13.3928L19.9711 15H18.1959V14.4644C18.1959 13.5781 17.5986 12.8572 16.8644 12.8572H14.2018V10.7144L17.7519 10.7144ZM14.2017 7.49999C14.2017 7.79505 14.0024 8.03563 13.758 8.03563H10.2075C9.96288 8.0359 9.76357 7.79505 9.76357 7.49999C9.76357 7.20492 9.96287 6.96434 10.2073 6.96434H13.7578C14.0022 6.96434 14.2017 7.20492 14.2017 7.49999ZM12.4265 5.89306H11.539L11.5388 5.30319C11.6822 5.33828 11.8306 5.35715 11.9826 5.35715C12.1345 5.35715 12.283 5.33828 12.4263 5.30292L12.4265 5.89306ZM11.9826 1.07141C12.7168 1.07141 13.314 1.79263 13.314 2.67861C13.314 3.56486 12.7168 4.2858 11.9826 4.2858C11.2485 4.2858 10.6513 3.56486 10.6513 2.67861C10.6513 1.79257 11.2486 1.07141 11.9826 1.07141ZM9.40818 2.14297H9.80832C9.77925 2.31603 9.76362 2.49519 9.76362 2.67861C9.76362 2.86204 9.77926 3.04121 9.80855 3.21426H9.4084C7.88555 3.21426 6.64685 4.70958 6.64685 6.54774L6.64663 9.64277H5.75915V6.54774C5.75915 4.11936 7.39649 2.14291 9.40824 2.14291L9.40818 2.14297ZM6.66754 14.881C6.66754 17.3097 5.0302 19.2861 3.01828 19.2861H1.3316C1.08716 19.2861 0.887639 19.0452 0.887639 18.7501C0.887639 18.4551 1.08716 18.2145 1.3316 18.2145H3.01851C4.54135 18.2145 5.78006 16.7192 5.78006 14.881L5.77984 13.9288H6.66732L6.66754 14.881ZM5.32572 12.8575C4.83595 12.8575 4.43824 12.3775 4.43824 11.7863C4.43824 11.1951 4.83596 10.715 5.32572 10.715H9.76363V12.8578L5.32572 12.8575ZM10.2074 15.536H13.7578C14.0022 15.536 14.2016 15.7766 14.2016 16.0717C14.2016 16.3667 14.0022 16.6073 13.7578 16.6073H10.2074C9.96293 16.6073 9.76363 16.3667 9.76363 16.0717C9.76363 15.7766 9.96293 15.536 10.2074 15.536ZM9.76363 26.2502C9.76363 25.9945 9.91624 25.79 10.1151 25.7371C10.1457 25.7454 10.1746 25.7595 10.2074 25.7595H13.7578C13.7906 25.7595 13.8192 25.7451 13.8501 25.7371C14.0489 25.7898 14.2018 25.9945 14.2018 26.2502V26.7858H9.76386L9.76363 26.2502ZM15.0892 28.9287H8.87598V28.393C8.87598 28.098 9.07528 27.8574 9.31973 27.8574H14.6453C14.8898 27.8574 15.0891 28.098 15.0891 28.393L15.0892 28.9287Z"/>
</mask>
<path d="M15.0892 26.8842V26.2499C15.0892 25.5524 14.717 24.9633 14.2017 24.7413V17.5795C14.717 17.3575 15.0892 16.7684 15.0892 16.0709C15.0892 15.3734 14.717 14.7843 14.2017 14.5623V13.9283H16.8643C17.1088 13.9283 17.3081 14.1689 17.3081 14.464V15.5352C17.3081 15.8314 17.5065 16.0709 17.7518 16.0709H20.4145C20.6598 16.0709 20.8582 15.8314 20.8582 15.5352V13.3924C20.8582 11.3248 19.4645 9.64237 17.7516 9.64237H14.2012V9.0081C14.7169 8.7864 15.0891 8.19733 15.0891 7.49979C15.0891 6.61354 14.4919 5.89259 13.7577 5.89259L13.3139 5.89286V4.82158C13.3139 4.81759 13.3122 4.81414 13.3122 4.81015C13.8488 4.32076 14.2016 3.55145 14.2016 2.67847C14.2016 1.20126 13.2065 0 11.9825 0C11.2602 0 10.6237 0.424796 10.2183 1.07128H9.40808C6.90659 1.07128 4.87128 3.52811 4.87128 6.54766V9.72272C4.11352 9.96701 3.55037 10.7951 3.55037 11.7855C3.55037 12.7853 4.12339 13.6211 4.8922 13.8561V14.8806C4.8922 16.1279 4.05139 17.1428 3.01812 17.1428H1.33145C0.597254 17.1428 0 17.8638 0 18.7497C0 19.636 0.597254 20.3569 1.33145 20.3569H3.01835C5.51984 20.3569 7.55515 17.9001 7.55515 14.8805L7.55493 13.9284H9.76354V14.5626C9.24822 14.7846 8.87606 15.3737 8.87606 16.0712C8.87606 16.7687 9.24823 17.3578 9.76354 17.5798V24.7416C9.24822 24.9636 8.87606 25.5527 8.87606 26.2502V26.8845C8.36074 27.1065 7.98858 27.6955 7.98858 28.3931V29.4644C7.98858 29.7605 8.18699 30 8.43232 30H15.533C15.7783 30 15.9767 29.7605 15.9767 29.4644V28.3931C15.9765 27.6953 15.6043 27.1062 15.089 26.8842L15.0892 26.8842ZM13.314 17.6787V24.6432H10.6513V17.6787H13.314ZM10.653 4.81001C10.653 4.814 10.6513 4.81745 10.6513 4.82144V5.89272H10.2075C9.47335 5.89299 8.87609 6.61394 8.87609 7.49992C8.87609 8.19745 9.24827 8.78651 9.76357 9.0085V9.64277H7.53427V6.54775C7.53427 5.30075 8.37485 4.28582 9.40812 4.28582H10.2183C10.3427 4.48413 10.4885 4.66008 10.653 4.81001ZM10.6513 9.10718H13.314V14.4642H10.6513V9.10718ZM17.7519 10.7144C18.9759 10.7144 19.9708 11.9156 19.9708 13.3928L19.9711 15H18.1959V14.4644C18.1959 13.5781 17.5986 12.8572 16.8644 12.8572H14.2018V10.7144L17.7519 10.7144ZM14.2017 7.49999C14.2017 7.79505 14.0024 8.03563 13.758 8.03563H10.2075C9.96288 8.0359 9.76357 7.79505 9.76357 7.49999C9.76357 7.20492 9.96287 6.96434 10.2073 6.96434H13.7578C14.0022 6.96434 14.2017 7.20492 14.2017 7.49999ZM12.4265 5.89306H11.539L11.5388 5.30319C11.6822 5.33828 11.8306 5.35715 11.9826 5.35715C12.1345 5.35715 12.283 5.33828 12.4263 5.30292L12.4265 5.89306ZM11.9826 1.07141C12.7168 1.07141 13.314 1.79263 13.314 2.67861C13.314 3.56486 12.7168 4.2858 11.9826 4.2858C11.2485 4.2858 10.6513 3.56486 10.6513 2.67861C10.6513 1.79257 11.2486 1.07141 11.9826 1.07141ZM9.40818 2.14297H9.80832C9.77925 2.31603 9.76362 2.49519 9.76362 2.67861C9.76362 2.86204 9.77926 3.04121 9.80855 3.21426H9.4084C7.88555 3.21426 6.64685 4.70958 6.64685 6.54774L6.64663 9.64277H5.75915V6.54774C5.75915 4.11936 7.39649 2.14291 9.40824 2.14291L9.40818 2.14297ZM6.66754 14.881C6.66754 17.3097 5.0302 19.2861 3.01828 19.2861H1.3316C1.08716 19.2861 0.887639 19.0452 0.887639 18.7501C0.887639 18.4551 1.08716 18.2145 1.3316 18.2145H3.01851C4.54135 18.2145 5.78006 16.7192 5.78006 14.881L5.77984 13.9288H6.66732L6.66754 14.881ZM5.32572 12.8575C4.83595 12.8575 4.43824 12.3775 4.43824 11.7863C4.43824 11.1951 4.83596 10.715 5.32572 10.715H9.76363V12.8578L5.32572 12.8575ZM10.2074 15.536H13.7578C14.0022 15.536 14.2016 15.7766 14.2016 16.0717C14.2016 16.3667 14.0022 16.6073 13.7578 16.6073H10.2074C9.96293 16.6073 9.76363 16.3667 9.76363 16.0717C9.76363 15.7766 9.96293 15.536 10.2074 15.536ZM9.76363 26.2502C9.76363 25.9945 9.91624 25.79 10.1151 25.7371C10.1457 25.7454 10.1746 25.7595 10.2074 25.7595H13.7578C13.7906 25.7595 13.8192 25.7451 13.8501 25.7371C14.0489 25.7898 14.2018 25.9945 14.2018 26.2502V26.7858H9.76386L9.76363 26.2502ZM15.0892 28.9287H8.87598V28.393C8.87598 28.098 9.07528 27.8574 9.31973 27.8574H14.6453C14.8898 27.8574 15.0891 28.098 15.0891 28.393L15.0892 28.9287Z" fill="#10493F" stroke="#10493F" stroke-width="12" mask="url(#path-4-inside-2_144_3)"/>
</svg>
