<svg width="18" height="28" viewBox="0 0 18 28" fill="none" xmlns="http://www.w3.org/2000/svg">
<path d="M9.00002 27.7756C4.2527 27.7756 0.390015 23.6757 0.390015 18.6362C0.390015 15.6567 2.29652 12.5271 4.31577 9.21312C6.00183 6.44456 7.74645 3.58131 8.41026 0.708742H8.41002C8.46837 0.427005 8.71788 0.226074 9.00548 0.229005C9.29283 0.231935 9.53819 0.437742 9.59093 0.720461C10.2572 3.5889 11.9989 6.44777 13.683 9.21296C15.7001 12.5272 17.6087 15.658 17.6087 18.6361C17.61 23.6757 13.7474 27.7755 8.99999 27.7755L9.00002 27.7756ZM9.00002 2.23562C8.14845 4.81568 6.63158 7.30618 5.15751 9.72562C3.21051 12.9172 1.37383 15.9334 1.37383 18.6362C1.37383 23.1326 4.7947 26.7919 9.00008 26.7919C13.2051 26.7919 16.6263 23.1329 16.6263 18.6362C16.6263 15.9331 14.7896 12.9177 12.8443 9.72562C11.3668 7.29912 9.84558 4.80231 9.00033 2.23562H9.00002Z" fill="white"/>
<path d="M3.04005 14.7756C3.62086 13.5588 4.26661 12.374 4.97411 11.2263C5.114 10.9932 5.41625 10.9177 5.64942 11.0576C5.88233 11.1978 5.95777 11.5 5.81788 11.7329C5.12844 12.8491 4.499 14.0015 3.93263 15.1848C3.80933 15.4128 3.53028 15.5061 3.29469 15.3982C3.0591 15.29 2.94776 15.0178 3.04005 14.7756Z" fill="white"/>
<path d="M5.19627 22.7656L12.0844 15.3856V15.3858C12.2699 15.1871 12.5815 15.1766 12.7802 15.3622C12.9787 15.5477 12.9894 15.8592 12.8036 16.0577L5.91552 23.4377C5.72997 23.6365 5.41845 23.647 5.21995 23.4614C5.02122 23.2756 5.01072 22.9643 5.19627 22.7656Z" fill="white"/>
<path d="M6.86814 18.7269C6.41135 18.7269 5.97339 18.5455 5.65039 18.2225C5.32739 17.8995 5.146 17.4615 5.146 17.005C5.146 16.5482 5.32739 16.1102 5.65039 15.7872C5.97339 15.4642 6.41139 15.2828 6.86814 15.2828C7.32469 15.2828 7.76264 15.4642 8.08564 15.7872C8.40864 16.1102 8.59003 16.5482 8.59003 17.005C8.59003 17.4615 8.40864 17.8995 8.08564 18.2225C7.76264 18.5455 7.32464 18.7269 6.86814 18.7269ZM6.86814 16.2669C6.56956 16.2669 6.30052 16.4466 6.18627 16.7225C6.07201 16.9981 6.13524 17.3158 6.34618 17.5267C6.55736 17.7379 6.87474 17.8009 7.15037 17.6866C7.42625 17.5726 7.60593 17.3033 7.60593 17.005C7.60593 16.5973 7.27563 16.2669 6.86814 16.2669Z" fill="white"/>
<path d="M11.1319 23.5406C10.6751 23.5406 10.2372 23.3592 9.91418 23.0362C9.59118 22.7132 9.40979 22.2752 9.40979 21.8187C9.40979 21.3619 9.59118 20.924 9.91418 20.601C10.2372 20.2782 10.6752 20.0966 11.1319 20.0966C11.5885 20.0966 12.0264 20.2782 12.3494 20.601C12.6724 20.924 12.8538 21.362 12.8538 21.8187C12.8538 22.2753 12.6724 22.7132 12.3494 23.0362C12.0264 23.3592 11.5884 23.5406 11.1319 23.5406ZM11.1319 21.0807C10.8334 21.0807 10.5643 21.2604 10.4501 21.5363C10.3358 21.8121 10.399 22.1295 10.61 22.3404C10.8212 22.5516 11.1385 22.6146 11.4142 22.5006C11.69 22.3863 11.87 22.1171 11.87 21.8187C11.87 21.411 11.5394 21.0807 11.1319 21.0807Z" fill="white"/>
<path d="M6.64061 10.2375C6.64061 10.4365 6.52073 10.6159 6.3369 10.6921C6.15281 10.7683 5.94139 10.726 5.80052 10.5854C5.6599 10.4448 5.6179 10.2331 5.69383 10.0493C5.77001 9.86542 5.94945 9.74554 6.14842 9.74554C6.27903 9.74554 6.40403 9.7973 6.49632 9.88959C6.58861 9.98188 6.64061 10.1071 6.64061 10.2375Z" fill="white"/>
</svg>
