<svg width="65" height="67" viewBox="0 0 65 67" fill="none" xmlns="http://www.w3.org/2000/svg">
<path d="M32.4312 66.7373C50.3427 66.7373 64.8624 51.7979 64.8624 33.3687C64.8624 14.9394 50.3427 0 32.4312 0C14.5197 0 0 14.9394 0 33.3687C0 51.7979 14.5197 66.7373 32.4312 66.7373Z" fill="#9CC28A"/>
<path d="M25.3555 40.649V46.716C25.3555 47.1419 25.4303 47.5495 25.5613 47.9294C26.0477 49.3424 27.3538 50.3563 28.8934 50.3563H30.0727V51.5695C30.0727 51.8914 30.1969 52.2001 30.4181 52.4276C30.6393 52.6552 30.9392 52.783 31.252 52.783H33.6107C33.9234 52.783 34.2234 52.6552 34.4446 52.4276C34.6657 52.2001 34.79 51.8914 34.79 51.5695V50.3563H35.9693C36.7004 50.3558 37.4134 50.1222 38.0101 49.6876C38.607 49.253 39.0581 48.6387 39.3014 47.9294C39.4368 47.5399 39.5064 47.1296 39.5072 46.716V40.649H25.3555Z" fill="#E2E4E5"/>
<path d="M25.3555 40.6498H39.5072C43.4097 38.0574 46.5832 33.6509 46.5832 28.5157C46.5832 20.4739 40.2474 13.9549 32.4314 13.9549C24.6155 13.9549 18.2795 20.4739 18.2795 28.5157C18.2795 33.6509 21.2279 38.223 25.3555 40.6498Z" fill="#FACB1B"/>
<path d="M32.4313 44.8969H25.3555V46.7171H32.4313V44.8969Z" fill="white"/>
<path d="M32.4313 41.8633H25.3555V43.6834H32.4313V41.8633Z" fill="white"/>
<path d="M28.8935 50.3568H32.4314V47.9299H25.5613C26.0472 49.343 27.3539 50.3568 28.8935 50.3568Z" fill="white"/>
<path d="M30.0723 50.3571V51.5708C30.0723 51.8926 30.1966 52.2013 30.4178 52.4289C30.639 52.6565 30.939 52.7845 31.2518 52.7845H32.4314V50.3571H30.0723Z" fill="#E2E4E5"/>
<path d="M34.7903 50.3571V51.5708C34.7903 51.8926 34.6659 52.2013 34.4447 52.4289C34.2235 52.6565 33.9235 52.7845 33.6107 52.7845H32.4312V50.3571H34.7903Z" fill="#B6BCBD"/>
<path d="M39.5072 40.649H25.3555V41.8623H39.5072V40.649Z" fill="#CFD3D4"/>
<path d="M39.5072 43.6833H25.3555V44.8967H39.5072V43.6833Z" fill="#CFD3D4"/>
<path d="M32.4313 46.7164H25.3555C25.3555 47.1423 25.4303 47.5501 25.5613 47.9298H39.3014C39.4368 47.5405 39.5064 47.13 39.5072 46.7164H32.4313Z" fill="#CFD3D4"/>
<path d="M25.3555 46.7164C25.3555 47.1423 25.4303 47.5501 25.5613 47.9298H32.4313V46.7164H25.3555Z" fill="#E2E4E5"/>
<path d="M32.4313 40.649H25.3555V41.8623H32.4313V40.649Z" fill="#E2E4E5"/>
<path d="M32.4313 43.6833H25.3555V44.8967H32.4313V43.6833Z" fill="#E2E4E5"/>
<path d="M25.3555 40.6498H32.4314V13.9549C24.6155 13.9549 18.2795 20.4739 18.2795 28.5157C18.2795 33.6509 21.2279 38.223 25.3555 40.6498Z" fill="#FBE158"/>
</svg>
