<svg width="50" height="58" viewBox="0 0 50 58" fill="none" xmlns="http://www.w3.org/2000/svg">
<path d="M10.3333 45.375H30.9583V49.5H10.3333V45.375Z" fill="#0B8570"/>
<path d="M14.4583 53.625H26.8333V57.75H14.4583V53.625Z" fill="#0B8570"/>
<path d="M9.95054 33.29C8.01895 31.8165 6.47924 29.8907 5.46698 27.6822C4.45472 25.4737 4.00095 23.0501 4.14564 20.625C4.15066 16.2505 5.89066 12.0565 8.98392 8.96329C12.0772 5.87002 16.2711 4.13002 20.6456 4.125V0C15.1774 0.00605965 9.93488 2.18099 6.06825 6.04762C2.20163 9.91424 0.0266978 15.1568 0.0206381 20.625C-0.119381 23.6214 0.45462 26.6083 1.69534 29.3394C2.93607 32.0705 4.808 34.4677 7.15689 36.3334C9.24352 38.261 10.3331 39.3556 10.3331 41.25H14.4581C14.4581 37.455 12.1671 35.3385 9.95054 33.29Z" fill="#0B8570"/>
<path d="M36.7333 24.75C35.9727 28.1376 34.0618 31.1569 31.3256 33.2941C29.1162 35.3405 26.8333 37.4573 26.8333 41.25H30.9583C30.9583 39.3537 32.044 38.2594 34.1246 36.3295C37.7406 33.4372 40.166 29.3155 40.9385 24.75H36.7333Z" fill="#0B8570"/>
<path d="M49.5208 2.90813L46.6126 0L39.2083 7.40438L31.8039 0L28.8958 2.90813L36.3001 10.3125L28.8958 17.7169L31.8039 20.625L39.2083 13.2206L46.6126 20.625L49.5208 17.7169L42.1164 10.3125L49.5208 2.90813Z" fill="#0B8570"/>
</svg>
