<svg width="17" height="35" viewBox="0 0 17 35" fill="none" xmlns="http://www.w3.org/2000/svg">
<path d="M9.46339 23.6437V7.11998C9.46339 6.69063 9.22296 6.2941 8.83256 6.07939C8.44216 5.86467 7.96097 5.86471 7.57059 6.07939C7.1802 6.29406 6.93975 6.69061 6.93975 7.11998V23.6437C5.80802 24.0248 4.93331 24.8945 4.58203 25.9876C4.23077 27.0806 4.4446 28.2676 5.15839 29.1868C5.87218 30.1057 7.00142 30.6481 8.20176 30.6481C9.4021 30.6481 10.5313 30.1058 11.2451 29.1868C11.9589 28.2676 12.1727 27.0806 11.8215 25.9876C11.4699 24.8945 10.5951 24.0248 9.46339 23.6437Z" fill="white"/>
<path d="M8.20188 0C6.86321 0 5.57928 0.506275 4.63292 1.40789C3.68624 2.30926 3.15463 3.53198 3.15463 4.8069V20.8856C1.34823 22.2289 0.214252 24.2304 0.0273527 26.4055C-0.159547 28.5805 0.617489 30.7312 2.17029 32.3358C3.72311 33.9408 5.9102 34.8541 8.20188 34.8541C10.4932 34.8541 12.6803 33.9408 14.2332 32.3358C15.7863 30.7312 16.5633 28.5805 16.3761 26.4055C16.1892 24.2304 15.0553 22.2288 13.2491 20.8856V4.8069C13.2491 3.53198 12.7172 2.30919 11.7709 1.40789C10.8242 0.506291 9.54024 0 8.20188 0ZM13.88 27.0388V27.0385C13.8807 28.945 12.8272 30.711 11.1075 31.6863C9.3878 32.6619 7.25553 32.703 5.49569 31.7945C3.73593 30.8861 2.6086 29.1624 2.52814 27.2575C2.44768 25.3525 3.42633 23.5483 5.1041 22.5083C5.46068 22.2874 5.6767 21.9099 5.67827 21.5047V4.80699C5.67827 3.94828 6.15914 3.15484 6.93992 2.72549C7.72071 2.29614 8.68277 2.29614 9.46354 2.72549C10.2443 3.15484 10.7255 3.94828 10.7255 4.80699V21.5047C10.7268 21.91 10.9428 22.2874 11.2994 22.5083C12.9085 23.5056 13.8793 25.2102 13.88 27.0386L13.88 27.0388Z" fill="white"/>
</svg>
